<?xml version="1.0" encoding="utf-8"?>
<!DOCTYPE svg PUBLIC "-//W3C//DTD SVG 1.0//EN" "http://www.w3.org/TR/2001/REC-SVG-20010904/DTD/svg10.dtd">
<svg version="1.0" xmlns="http://www.w3.org/2000/svg" width="1536px" height="1024px" viewBox="0 0 1536 1024" preserveAspectRatio="xMidYMid meet">
 <g fill="#fefefe">
  <path d="M0 512 l0 -512 768 0 768 0 0 512 0 512 -768 0 -768 0 0 -512z m526.77 96.12 c40 -8.98 74.09 -37.05 90.83 -74.58 2.09 -4.68 0.98 -3.45 -6.52 7.88 -20.68 30.77 -51.82 52.18 -85.54 58.46 -14.52 2.83 -42.95 2.58 -57.23 -0.37 -38.77 -8 -78.03 -37.91 -94.77 -72.12 -7.51 -15.26 -10.46 -27.45 -11.32 -46.15 -1.60 -36.92 10.09 -66.46 36.18 -91.08 5.91 -5.66 9.60 -9.60 8.12 -8.86 -5.42 2.95 -22.40 20.18 -28.55 29.17 -8.37 11.94 -16.49 29.29 -19.94 42.46 -2.46 8.74 -2.83 13.42 -2.83 28.92 0.12 16.49 0.49 19.69 3.45 29.54 10.34 34.22 30.28 58.71 64.62 79.26 16 9.72 37.17 16.98 56.98 19.82 11.20 1.60 34.34 0.37 46.52 -2.34z m140.92 -18.58 c23.75 -0.74 50.58 -1.48 59.69 -1.60 9.11 -0.25 0.25 -0.37 -19.69 -0.49 -48.49 -0.37 -99.45 1.35 -101.42 3.32 -0.98 1.23 0.74 1.35 8.49 0.74 5.42 -0.37 29.29 -1.35 52.92 -1.97z m-150.77 -2.71 c3.69 -0.62 10.58 -2.34 15.38 -3.82 l8.49 -2.71 -6.65 -0.62 -6.77 -0.62 -0.37 -5.29 c-0.37 -4.43 0.25 -5.91 4.43 -11.08 2.58 -3.20 5.42 -7.14 6.15 -8.86 0.86 -1.72 2.83 -5.54 4.55 -8.62 1.60 -3.08 3.08 -6.89 3.08 -8.62 0 -1.72 0.86 -4.68 1.85 -6.65 0.98 -1.85 1.85 -5.29 1.85 -7.51 0 -5.78 -3.32 -6.52 -9.48 -2.34 -3.94 2.71 -5.66 3.08 -11.08 2.71 -8.12 -0.74 -10.22 -2.46 -10.22 -8.49 0 -2.71 -0.49 -4.80 -1.11 -4.80 -0.62 0 -2.83 -2.83 -5.05 -6.15 -3.08 -4.80 -4.06 -8 -4.68 -14.15 l-0.62 -8 17.85 0 c9.72 0 18.22 0.37 18.95 0.98 0.62 0.49 -0.12 -0.37 -1.72 -1.85 -2.71 -2.58 -3.94 -2.83 -18.83 -2.83 l-15.88 0 0 -6.65 c0 -4.68 0.62 -7.14 2.09 -8.25 1.48 -1.35 10.58 -1.85 41.48 -2.46 l39.51 -0.62 -42.46 -0.25 c-23.38 -0.12 -43.69 -0.62 -45.17 -0.98 -4.43 -1.23 -3.69 -7.02 1.72 -13.54 l4.55 -5.42 18.58 -0.25 18.46 -0.25 -19.08 -0.74 -19.08 -0.62 -0.37 -4.68 c-0.49 -5.29 4.06 -13.54 10.95 -19.94 6.28 -5.91 8.49 -10.34 7.02 -13.54 -0.74 -1.60 -2.58 -3.45 -4.18 -4.18 -4.31 -1.85 -4.18 -10.71 0.12 -15.88 2.83 -3.45 2.83 -3.69 0.86 -5.42 -3.45 -3.08 -6.65 -4.43 -12.80 -5.29 -4.92 -0.74 -5.78 -0.49 -6.40 1.48 -2.83 9.60 -9.48 65.85 -11.94 100.68 -2.34 34.34 -0.37 69.54 5.66 97.60 0.98 4.92 1.85 11.69 1.85 15.02 l0 6.15 5.91 -0.74 c3.20 -0.37 8.86 -1.23 12.55 -1.97z m-30.28 -0.62 c-0.49 -1.23 -2.58 -7.26 -4.68 -13.42 l-3.82 -11.20 -11.57 -1.48 c-6.40 -0.86 -12.31 -1.85 -13.29 -2.22 -3.82 -1.48 -0.98 2.71 8.25 12.18 6.15 6.52 9.85 11.20 9.85 12.92 0 2.22 0.98 2.95 5.29 3.82 8.62 1.97 11.08 1.85 9.97 -0.62z m-47.88 -18.46 c-3.94 -4.43 -7.88 -9.97 -8.98 -12.31 -1.11 -2.22 -2.46 -4.06 -3.20 -4.06 -0.74 -0.12 -6.28 -1.97 -12.43 -4.31 l-11.08 -4.06 9.85 9.11 c8.25 7.75 30.03 23.88 32.12 23.88 0.37 0 -2.46 -3.69 -6.28 -8.25z m292.55 -3.08 l0.37 -7.75 6.77 -0.62 6.77 -0.62 0.37 -5.17 0.37 -5.29 -7.38 0 -7.51 0 -0.25 -27.32 -0.37 -27.45 -4.92 -0.37 c-11.45 -0.86 -11.94 -0.49 -36.68 28.06 -22.89 26.34 -23.02 26.46 -23.02 32.37 l0 5.78 25.23 0 25.23 0 0 7.14 c0 3.94 0.37 7.63 0.86 8 0.37 0.49 3.69 0.86 7.26 0.86 l6.52 0 0.37 -7.63z m208.49 -2.34 c9.60 -1.72 13.54 -4.31 16.49 -10.34 2.22 -4.43 2.46 -7.63 2.46 -26.22 l0 -21.17 -6.15 0 -6.15 0 0 22.03 c0 12.18 -0.49 23.51 -1.11 25.11 -1.72 4.31 -8.37 6.28 -18.83 5.54 -13.78 -0.98 -13.78 -1.11 -14.28 -29.29 l-0.37 -23.38 -5.54 0 -5.54 0 0.37 23.88 c0.37 23.63 0.37 24 3.45 27.20 4.18 4.43 6.77 5.66 14.03 6.77 9.35 1.35 13.17 1.35 21.17 -0.12z m-98.22 -12.68 l-0.37 -11.20 6.89 -0.37 6.77 -0.37 9.23 11.82 c8.86 11.45 11.69 13.54 16.98 12.68 2.46 -0.37 2.09 -1.11 -3.45 -7.75 -4.92 -5.91 -6.28 -8.25 -6.28 -11.94 0 -3.94 0.62 -4.92 5.17 -8 2.95 -1.97 6.03 -4.92 6.89 -6.52 2.34 -4.43 1.11 -13.05 -2.22 -16.62 -5.42 -5.78 -11.08 -6.89 -32.62 -6.52 l-19.69 0.37 0.12 27.69 0 27.69 5.54 0.62 c2.95 0.37 5.91 0.49 6.40 0.25 0.62 -0.25 0.86 -5.54 0.62 -11.82z m-47.75 -13.66 l0 -25.23 9.60 0 c5.29 0 9.97 -0.37 10.34 -0.74 0.37 -0.37 0.49 -1.72 0.12 -3.08 -0.62 -2.22 -1.97 -2.34 -26.34 -2.34 l-25.72 0 0 3.08 c0 2.95 0.25 3.08 9.23 3.08 l9.23 0 0 25.23 0 25.23 6.77 0 6.77 0 0 -25.23z m209.48 0.37 l0.37 -24.98 10.22 -0.37 c9.85 -0.37 10.09 -0.37 10.09 -3.32 l0 -3.08 -25.85 0 -25.85 0 0 3.08 c0 2.95 0.25 3.08 9.11 3.08 l9.11 0 0.74 3.82 c0.37 2.09 0.74 13.54 0.74 25.23 l0 21.42 5.54 0 5.54 0 0.25 -24.86z m47.75 11.94 l0 -12.92 15.88 0 15.75 0 0.86 6.52 c0.37 3.45 0.74 9.35 0.74 12.92 l0 6.40 5.54 0 5.54 0 0 -28.31 0 -28.31 -5.54 0 -5.42 0 -0.37 12.68 -0.37 12.55 -16.25 0.37 -16.37 0.37 0 -13.05 0 -12.92 -6.15 0 -6.15 0 0 28.31 0 28.31 6.15 0 6.15 0 0 -12.92z m-576.49 -7.63 c-0.49 -2.58 -1.11 -12.80 -1.60 -22.77 l-0.74 -17.97 -7.51 -0.86 c-9.60 -0.98 -35.20 -5.42 -36.68 -6.28 -3.45 -2.09 7.51 41.35 11.45 45.54 1.23 1.35 26.09 6.65 31.75 6.77 4.06 0.12 4.18 0.12 3.32 -4.43z m-58.46 -19.69 c-1.35 -5.29 -3.08 -14.52 -3.69 -20.55 -0.74 -6.03 -1.48 -11.08 -1.60 -11.32 -0.25 -0.12 -5.66 -2.22 -12.18 -4.55 -6.52 -2.34 -14.15 -5.54 -16.98 -7.02 -2.95 -1.48 -5.66 -2.34 -6.03 -1.97 -0.98 0.98 1.60 16.98 4.06 24.98 2.34 7.88 6.03 12.31 15.14 18.34 7.63 5.17 22.65 13.05 23.38 12.31 0.12 -0.25 -0.74 -4.80 -2.09 -10.22z m180.18 -13.91 c1.85 -0.74 1.11 -1.11 -3.08 -1.11 -4.18 0 -4.92 0.37 -3.08 1.11 1.35 0.62 2.71 1.11 3.08 1.11 0.37 0 1.72 -0.49 3.08 -1.11z m11.45 -17.48 c-0.74 -1.85 -1.48 -3.45 -1.72 -3.45 -0.25 0 -0.49 3.20 -0.37 7.14 0.12 6.77 0.12 6.89 1.72 3.45 1.11 -2.58 1.23 -4.68 0.37 -7.14z m-26.83 3.69 c0 -4.06 -0.37 -4.80 -1.48 -3.69 -0.98 0.98 -6.03 1.48 -14.40 1.48 -11.57 0 -13.29 -0.25 -16.12 -2.71 -1.72 -1.60 -1.35 -0.98 0.86 1.23 4.06 3.94 4.06 3.94 16.49 3.94 11.32 0 12.43 0.25 13.05 2.46 0.98 3.94 1.60 2.95 1.60 -2.71z m-107.82 -25.23 c0.49 -8.74 1.48 -20.18 2.09 -25.48 0.62 -5.42 0.86 -10.09 0.49 -10.34 -0.37 -0.49 -26.58 -4.92 -37.17 -6.40 -0.98 -0.12 -7.88 24.98 -9.48 34.34 -2.71 16.25 -2.83 15.63 3.94 17.35 7.63 1.97 30.65 5.91 35.45 6.03 l3.82 0.12 0.86 -15.63z m122.34 11.08 c-1.23 -0.25 -3.20 -0.25 -4.31 0 -1.23 0.37 -0.25 0.62 2.09 0.62 2.34 0 3.32 -0.25 2.22 -0.62z m86.15 -35.08 l0.25 -28.06 12.31 0 12.31 0 0 -3.69 0 -3.69 -32.62 0 -32.62 0 0 3.69 0 3.69 12.92 0 12.92 0 0 27.45 c0 15.14 0.37 27.94 0.86 28.43 0.49 0.49 3.69 0.74 7.14 0.49 l6.15 -0.37 0.37 -27.94z m101.66 27.57 c0.37 -0.62 0.25 -2.22 -0.12 -3.69 -0.62 -2.71 -1.11 -2.71 -24.49 -2.71 l-23.88 0 0 -9.85 c0 -9.48 0.12 -9.97 3.20 -11.08 1.72 -0.74 9.72 -1.23 17.85 -1.23 l14.65 0 0 -3.08 0 -3.08 -17.85 0 -17.85 0 0 -9.72 c0 -6.40 0.49 -10.09 1.48 -10.71 0.86 -0.62 11.82 -1.23 24.37 -1.60 21.66 -0.74 22.77 -0.86 22.77 -3.20 0 -2.34 -0.98 -2.46 -31.02 -2.83 l-31.14 -0.25 0 31.14 c0 17.23 0.37 31.63 0.86 32 1.11 1.23 60.43 1.11 61.17 -0.12z m77.66 -2.71 l0 -3.08 -21.42 -0.37 c-17.85 -0.25 -21.91 -0.62 -23.75 -2.34 -1.97 -1.72 -2.22 -4.31 -2.22 -22.28 0 -17.23 0.37 -20.68 2.09 -22.65 1.72 -1.97 4.18 -2.22 23.14 -2.22 20.80 0 21.29 0 21.91 -2.71 0.37 -1.48 0.49 -3.08 0.12 -3.69 -0.37 -0.49 -11.20 -0.98 -24 -0.98 -27.57 0 -31.02 0.98 -35.45 10.22 -2.22 4.55 -2.58 7.63 -2.58 20.68 0 17.72 1.11 22.77 6.03 27.45 4.68 4.55 11.08 5.42 35.82 5.17 l20.31 -0.12 0 -3.08z m31.38 -10.34 c0 -11.69 0.37 -14.15 1.97 -14.77 1.11 -0.37 10.46 -0.74 20.92 -0.74 l18.83 0 0.37 14.52 0.37 14.40 6.15 0 6.15 0 0.37 -31.63 0.25 -31.75 -6.77 0 -6.77 0 0 13.54 0 13.54 -20.92 0 -20.92 0 0 -13.54 0 -13.54 -6.77 0 -6.77 0 0 31.14 c0 17.23 0.37 31.63 0.86 32 0.37 0.49 3.45 0.86 6.77 0.86 l5.91 0 0 -14.03z m-480 7.14 c0 -6.89 3.94 -26.95 7.26 -36.31 l2.34 -6.89 -10.71 -3.32 c-6.03 -1.72 -11.69 -3.20 -12.68 -3.20 -5.42 0 -23.02 38.40 -19.08 41.60 4.06 3.32 27.57 13.54 31.38 13.78 0.98 0 1.48 -1.97 1.48 -5.66z m206.15 -7.88 c0.49 -0.74 -1.48 -1.23 -5.17 -1.11 -4.43 0 -5.29 0.37 -3.45 1.11 3.45 1.48 7.75 1.48 8.62 0z m-15.38 -4.80 c-0.62 -1.35 -1.23 -5.05 -1.23 -8.25 0 -7.75 -1.23 -6.15 -2.34 3.08 -0.86 7.26 -0.86 7.51 1.97 7.51 2.46 0 2.71 -0.37 1.60 -2.34z m24.86 -11.45 c-1.11 -2.46 -1.35 -2.22 -1.35 2.71 0 4.92 0.25 5.17 1.35 2.83 0.98 -2.09 0.98 -3.57 0 -5.54z m-10.95 -10.83 c-1.72 -0.74 -3.94 -0.74 -5.54 0 -2.34 0.86 -1.85 1.11 2.71 1.11 4.55 0 5.05 -0.25 2.83 -1.11z m-137.72 -18.71 c3.32 -19.94 5.91 -35.32 6.52 -37.66 0.49 -2.22 0.25 -2.58 -1.60 -1.97 -4.92 1.72 -19.20 13.54 -24.86 20.68 -7.02 8.62 -13.17 17.85 -12.43 18.46 0.74 0.62 23.26 4.18 27.82 4.31 3.57 0.12 4.06 -0.25 4.55 -3.82z m99.82 -3.45 c-2.71 -0.37 -5.66 -1.11 -6.40 -1.60 -1.11 -0.74 -1.60 -0.25 -1.60 1.23 0 1.97 0.86 2.09 6.40 1.72 l6.52 -0.62 -4.92 -0.74z m-145.48 -9.48 c3.08 -4.68 8.74 -11.94 12.68 -16.25 8.12 -8.86 7.26 -8.98 -7.51 -1.72 -9.48 4.80 -21.78 13.17 -26.22 17.97 l-2.83 3.08 8.98 2.46 c4.92 1.35 9.11 2.58 9.23 2.58 0.12 0.12 2.71 -3.57 5.66 -8.12z m134.65 -4.92 c-0.37 -1.23 -0.62 -0.25 -0.62 2.09 0 2.34 0.25 3.32 0.62 2.22 0.25 -1.23 0.25 -3.20 0 -4.31z m14.89 -11.08 c-1.23 -0.25 -3.20 -0.25 -4.31 0 -1.23 0.37 -0.25 0.62 2.09 0.62 2.34 0 3.32 -0.25 2.22 -0.62z m-165.91 -8.49 c0 -0.37 -1.60 0.49 -3.69 1.97 -1.97 1.48 -3.69 2.95 -3.69 3.20 0 0.37 1.72 -0.49 3.69 -1.97 2.09 -1.48 3.69 -2.95 3.69 -3.20z"/>
  <path d="M683.32 540.43 c0.25 -3.94 2.46 -7.51 12.06 -19.69 11.20 -14.28 11.94 -14.89 16.37 -14.89 l4.55 0 0 19.69 0 19.69 -16.74 0 -16.62 0 0.37 -4.80z"/>
  <path d="M841.85 531.69 c-0.86 -1.48 -0.98 -6.15 -0.49 -12.43 l0.86 -9.97 13.42 0.49 c11.69 0.37 13.78 0.74 15.26 2.71 1.85 2.71 2.34 15.02 0.62 17.85 -1.35 2.09 -9.60 3.69 -20.06 3.82 -7.02 0 -8.49 -0.37 -9.60 -2.46z"/>
 </g>
 <g fill="#077ada">
  <path d="M825.23 563.45 c-0.25 -0.86 -0.37 -15.14 -0.25 -31.75 0.25 -27.57 0.37 -30.15 2.46 -30.52 1.97 -0.37 2.09 1.72 2.09 31.63 0 28.06 -0.25 32.12 -1.85 32.12 -1.11 0 -2.09 -0.74 -2.46 -1.48z"/>
  <path d="M743.88 556.31 c0.37 -2.22 0.74 -5.91 0.74 -8.12 0 -3.45 0.49 -4.18 2.46 -4.18 2.34 0 2.58 0.62 2.22 7.75 -0.37 7.02 -0.62 7.63 -3.32 8 -2.71 0.37 -2.83 0.12 -2.09 -3.45z"/>
  <path d="M729.85 531.82 l0 -4.68 -8.62 0.62 -8.62 0.62 0 -9.48 c0 -5.17 -0.37 -9.35 -0.86 -9.35 -0.62 0 -5.66 5.91 -11.32 13.17 l-10.34 12.92 -6.28 -0.74 c-3.45 -0.37 -7.51 -0.74 -8.98 -0.74 -1.97 0 -2.83 -0.74 -2.83 -2.22 0 -1.23 8.12 -11.69 18.09 -23.14 20.18 -23.26 19.82 -23.02 35.45 -22.40 l8.62 0.37 0.37 24.98 c0.25 24.25 0.25 24.86 -2.22 24.86 -2.09 0 -2.46 -0.86 -2.46 -4.80z"/>
  <path d="M840.62 520 l0 -9.23 4.31 0 c2.34 0 4.31 0.62 4.31 1.23 0 0.74 -0.86 1.23 -1.85 1.23 -1.35 0 -1.85 1.60 -1.97 6.52 -0.12 3.45 -0.12 7.14 0 8 0.12 0.74 -0.86 1.48 -2.34 1.48 -2.22 0 -2.46 -0.74 -2.46 -9.23z"/>
  <path d="M680.62 468.43 c0 -7.38 0.25 -8.12 2.46 -8.12 2.34 0 2.58 0.62 2.22 7.63 -0.25 6.15 -0.74 7.75 -2.46 8.12 -1.97 0.37 -2.22 -0.62 -2.22 -7.63z"/>
  <path d="M860.31 469.66 c0 -6.15 0.25 -6.89 2.58 -6.89 2.22 0 2.46 0.62 2.09 6.40 -0.25 5.05 -0.86 6.65 -2.46 6.89 -1.85 0.37 -2.22 -0.62 -2.22 -6.40z"/>
  <path d="M875.94 475.45 c-0.49 -0.37 -0.86 -7.38 -0.86 -15.38 0 -13.66 0.12 -14.52 2.46 -14.52 2.34 0 2.46 0.86 2.46 15.38 0 12.06 -0.37 15.38 -1.60 15.38 -0.98 0 -2.09 -0.37 -2.46 -0.86z"/>
  <path d="M930.46 455.38 c0 -6.89 -0.37 -8.62 -1.85 -8.62 -0.98 0 -1.85 -0.86 -1.85 -1.85 0 -1.23 1.35 -1.85 4.31 -1.85 l4.31 0 0 10.46 c0 9.60 -0.25 10.46 -2.46 10.46 -2.22 0 -2.46 -0.86 -2.46 -8.62z"/>
  <path d="M733.78 452.06 l0.37 -8.37 6.52 -0.37 c7.51 -0.49 9.11 2.34 2.46 4.18 -3.82 1.11 -4.06 1.60 -4.43 7.02 -0.37 4.80 -0.74 5.78 -2.83 5.78 -2.22 0 -2.46 -0.74 -2.09 -8.25z"/>
  <path d="M503.88 446.65 l-1.11 -3.82 -3.32 2.58 c-3.08 2.46 -10.83 3.69 -10.83 1.72 0 -3.69 6.65 -58.58 8.12 -67.45 2.71 -16.12 2.22 -15.38 8.86 -15.38 12.06 0.12 20.68 3.94 22.89 10.22 0.98 2.71 0.49 3.82 -2.71 7.63 -4.68 5.29 -4.92 7.63 -0.98 9.35 1.60 0.74 3.57 2.71 4.31 4.43 2.95 6.65 0.98 12.80 -6.65 20.06 -6.77 6.65 -12.43 15.75 -10.58 17.60 1.60 1.60 25.48 1.97 31.02 0.49 1.85 -0.49 7.38 -5.78 13.54 -12.80 l10.46 -12.06 -2.34 -5.66 c-3.08 -7.26 -2.09 -13.17 2.95 -18.95 11.32 -12.92 30.65 -5.29 30.65 12.06 0 6.15 -3.82 12.80 -8.62 15.26 -1.72 0.86 -5.29 1.60 -8.12 1.60 -5.91 0 -6.52 0.49 -15.75 11.94 -3.82 4.92 -9.23 10.83 -11.94 13.17 l-4.80 4.43 -18.34 0 -18.46 0 -2.58 3.69 c-3.32 4.68 -4.31 4.68 -5.66 -0.12z m83.20 -44.92 c2.58 -2.46 2.22 -10.22 -0.62 -12.31 -5.54 -4.06 -14.15 -0.25 -14.15 6.28 0 4.80 5.42 9.72 9.60 8.62 1.85 -0.37 4.18 -1.60 5.17 -2.58z"/>
  <path d="M884.68 444.68 l-9.60 -0.49 0 -19.57 0 -19.69 10.46 0 10.46 0 0 13.54 0 13.54 17.23 0 17.23 0 0 -13.54 0 -13.54 10.46 0 10.46 0 0 12.68 c0 6.89 -0.49 13.17 -0.98 13.91 -0.49 0.74 -5.54 1.72 -11.32 2.09 -5.78 0.49 -10.58 1.35 -10.83 2.09 -0.25 0.62 -3.32 1.23 -6.89 1.23 -5.78 0 -6.65 0.37 -7.88 3.08 -1.11 2.46 -2.34 3.08 -5.78 3.08 -2.34 0 -4.31 0.62 -4.31 1.23 0 0.74 -2.09 1.11 -4.55 0.98 -2.58 -0.12 -8.98 -0.49 -14.15 -0.62z"/>
  <path d="M428.31 442.83 c0 -2.34 5.91 -19.69 7.14 -20.80 0.74 -0.74 13.29 0.98 41.85 5.78 3.69 0.62 4.06 0.98 3.45 3.94 -0.25 1.85 -0.86 5.42 -1.35 8 -0.62 4.06 -1.11 4.55 -4.31 4.55 -2.09 0 -3.69 -0.37 -3.69 -0.86 0 -1.11 -29.54 -0.74 -37.78 0.37 -4.06 0.62 -5.29 0.37 -5.29 -0.98z"/>
  <path d="M663.38 431.38 l0 -11.69 -12.92 0 -12.92 0 0 -7.38 0 -7.38 36.31 0 36.31 0 0 7.38 0 7.38 -12.31 0 -12.31 0 0 8 c0 7.02 -0.25 8 -2.34 8 -1.35 0 -2.58 -0.49 -2.83 -1.11 -0.12 -0.49 -2.95 -1.23 -6.15 -1.60 l-5.91 -0.74 0 5.42 c0 4.55 -0.37 5.42 -2.46 5.42 -2.34 0 -2.46 -0.86 -2.46 -11.69z"/>
  <path d="M717.54 424 l0 -19.08 34.83 0.25 34.71 0.37 0 6.15 0 6.15 -22.77 0.74 c-12.55 0.37 -23.51 0.98 -24.37 1.60 -0.86 0.49 -1.48 3.82 -1.48 8.25 0 6.52 -0.25 7.26 -2.58 7.26 -1.35 0 -4.92 0.62 -8 1.35 -3.94 0.98 -5.42 1.97 -5.42 3.69 0 1.48 -0.86 2.34 -2.46 2.34 -2.34 0 -2.46 -0.86 -2.46 -19.08z"/>
  <path d="M804.06 434.83 l-8.98 -0.49 0 -6.89 c0 -9.48 3.69 -16.86 9.97 -20.18 4.43 -2.22 6.89 -2.34 32.12 -2.09 l27.45 0.37 0.37 2.95 c0.25 1.60 0.12 4.80 -0.37 7.02 l-0.74 4.18 -21.29 0 c-24.62 0 -25.35 0.25 -25.35 10.22 0 4.80 -0.37 5.78 -2.09 5.54 -1.23 -0.12 -6.28 -0.49 -11.08 -0.62z"/>
  <path d="M420.55 428.68 c-0.49 -0.37 -0.86 -3.20 -0.86 -6.15 0 -5.17 0.12 -5.29 3.45 -4.55 4.80 1.23 5.17 1.85 3.08 7.02 -1.72 4.31 -3.82 5.66 -5.66 3.69z"/>
  <path d="M458.09 417.85 c-9.72 -1.48 -17.97 -3.08 -18.34 -3.57 -0.98 -0.98 6.52 -13.17 14.52 -23.14 10.46 -13.17 27.82 -25.60 35.45 -25.60 3.08 0 3.08 -0.25 0.74 8.49 -1.48 5.91 -4.80 24.37 -7.38 41.72 -0.98 6.28 0 6.15 -24.98 2.09z"/>
  <path d="M416.62 408.74 c-17.60 -5.17 -16.62 -4.31 -10.34 -10.71 14.65 -15.14 41.60 -28.68 63.88 -32 5.17 -0.86 5.42 -0.74 3.82 1.23 -0.98 1.11 -3.69 2.95 -6.15 3.94 -5.91 2.46 -24.12 21.42 -30.89 32.25 -3.08 4.80 -6.40 8.74 -7.38 8.74 -0.98 -0.12 -6.77 -1.60 -12.92 -3.45z"/>
  <path d="M386.46 400.37 l0 -8.25 6.03 -5.78 c10.71 -10.34 32.86 -23.51 48.37 -28.80 22.40 -7.51 55.02 -10.09 78.65 -6.15 20.06 3.32 43.32 11.94 51.57 18.95 l3.08 2.71 -4.92 -2.34 c-7.26 -3.57 -23.26 -8.37 -35.20 -10.71 -20.43 -3.94 -53.66 -3.69 -68.18 0.62 -1.97 0.62 -7.75 2.34 -12.68 3.69 -21.42 6.28 -40.74 18.22 -56.62 34.95 -4.92 5.17 -9.11 9.35 -9.48 9.35 -0.37 0 -0.62 -3.69 -0.62 -8.25z"/>
 </g>
 <g fill="#066dcf">
  <path d="M662.15 545.72 c0 -3.69 1.35 -6.03 7.63 -13.54 8 -9.48 9.85 -10.83 8.74 -6.65 -0.37 1.35 -1.11 2.46 -1.72 2.46 -0.62 0 -1.11 0.49 -1.11 1.11 0 0.49 1.35 0.74 2.95 0.49 1.60 -0.37 3.94 0 5.29 0.62 1.72 0.98 3.32 0.86 5.78 -0.49 1.97 -0.98 3.69 -1.72 3.94 -1.72 1.48 0 0 3.32 -3.20 7.38 -4.31 5.54 -4.43 6.15 -1.23 6.15 3.57 0 1.85 2.95 -2.83 4.55 -4.68 1.72 -17.35 4.06 -21.42 4.06 -2.46 0 -2.83 -0.62 -2.83 -4.43z"/>
  <path d="M712.62 531.45 l0 -8 5.91 -0.12 c3.20 -0.12 6.77 -0.25 7.88 -0.25 2.71 -0.25 5.91 -4.55 6.15 -8.62 0 -1.72 0.49 2.71 0.98 9.85 0.49 7.14 0.74 13.05 0.62 13.29 -0.12 0.12 -5.05 0.74 -10.95 1.11 l-10.58 0.74 0 -8z"/>
  <path d="M931.32 475.45 c-1.11 -0.98 -1.11 -12.31 -0.12 -16 0.49 -1.60 1.60 -2.83 2.46 -2.83 1.35 0 1.72 2.34 1.72 9.85 0 7.38 -0.37 9.85 -1.60 9.85 -0.98 0 -2.09 -0.37 -2.46 -0.86z"/>
  <path d="M488.37 451.20 c0.25 -4.80 0.98 -9.23 1.60 -9.85 0.74 -0.74 1.11 -0.37 1.11 0.86 0 1.11 0.25 2.09 0.62 2.09 0.98 0 8.49 -5.42 8.98 -6.28 0.62 -1.35 7.38 1.72 6.89 3.08 -0.62 1.48 21.29 1.23 35.45 -0.37 6.77 -0.74 8 -0.62 6.89 0.74 -0.98 1.23 -6.15 1.60 -20.80 1.60 -12.18 0 -19.57 0.49 -19.57 1.23 0 0.74 0 1.60 0.12 1.97 0.12 0.37 -1.35 2.22 -3.20 4.18 l-3.20 3.32 2.83 0.86 c1.60 0.37 5.17 0.74 8.12 0.74 4.31 0 5.17 0.37 5.17 2.46 0 2.22 -0.86 2.34 -15.88 2.22 l-15.75 -0.12 0.62 -8.74z"/>
  <path d="M436.68 455.63 c-11.82 -0.37 -11.45 0 -9.48 -8.86 1.85 -8.49 2.22 -9.23 3.82 -7.63 0.98 0.98 2.09 0.98 3.94 0 2.83 -1.48 13.05 -2.22 13.05 -0.86 0 0.98 16.74 0.49 21.05 -0.62 2.22 -0.62 3.82 -0.25 5.29 1.11 1.60 1.60 2.46 1.72 3.69 0.74 1.72 -1.48 1.72 1.35 0 12.80 l-0.49 3.69 -15.14 0 c-8.25 0 -19.82 -0.12 -25.72 -0.37z"/>
  <path d="M400 454.15 c-1.72 -0.49 -8.12 -0.98 -14.40 -1.11 l-11.32 -0.12 1.85 -6.40 c2.46 -8.74 11.82 -27.69 16.12 -32.62 l3.45 -4.06 12.92 3.82 c14.40 4.31 16 5.17 15.14 8.37 -0.37 1.23 0 2.71 0.74 3.08 0.74 0.49 0.49 3.08 -0.98 7.26 -1.23 3.45 -2.95 9.48 -3.82 13.17 -0.86 3.69 -2.09 7.51 -2.83 8.37 -1.35 1.60 -11.94 1.85 -16.86 0.25z"/>
  <path d="M891.08 453.42 c0 -1.72 -1.11 -1.85 -7.26 -1.11 l-7.38 0.86 -0.74 -4.18 c-0.49 -2.22 -0.62 -6.65 -0.37 -9.60 0.37 -5.17 0.49 -5.29 1.72 -2.46 1.23 2.71 2.09 3.08 8.37 3.08 3.82 0 6.89 -0.49 6.89 -1.23 0 -0.74 0.37 -0.62 0.98 0.12 0.49 0.74 2.22 1.85 3.82 2.34 2.22 0.74 2.83 0.49 2.34 -0.74 -0.49 -1.35 0.37 -1.60 3.94 -1.35 3.69 0.37 5.05 0 6.03 -1.97 0.74 -1.35 0.98 -2.71 0.62 -2.95 -0.25 -0.37 4.06 -0.98 9.60 -1.35 7.88 -0.49 10.46 -1.23 11.82 -2.95 0.86 -1.23 2.34 -1.97 3.08 -1.85 4.18 1.23 11.57 0.98 12.92 -0.62 0.86 -0.86 1.11 -1.60 0.37 -1.60 -1.60 0 -0.25 -4.55 1.85 -6.28 1.48 -1.23 1.72 0.86 1.72 13.54 0 16.86 1.11 15.38 -12.55 16.62 -5.66 0.49 -7.14 0.25 -7.14 -1.23 0 -1.35 -2.95 -1.72 -15.88 -1.72 -8.74 0 -16.74 0.37 -17.85 0.74 -1.23 0.49 -1.97 2.22 -1.97 4.31 0 2.71 -0.62 3.57 -2.46 3.57 -1.48 0 -2.46 -0.86 -2.46 -1.97z"/>
  <path d="M725.91 450.83 l-8.37 -0.49 0.12 -4.55 c0.12 -5.91 1.97 -17.72 2.22 -14.03 0.12 2.58 2.58 4.06 2.58 1.48 0 -0.62 0.98 -1.11 2.22 -0.98 7.26 0.62 9.85 -0.25 11.08 -3.57 l1.11 -3.45 0.86 4.06 0.98 3.94 17.72 0 17.72 0 0 6.77 0 6.77 -17.97 0 c-16.86 0 -17.97 0.12 -18.58 2.46 -0.37 1.35 -1.23 2.34 -2.09 2.22 -0.74 -0.12 -5.05 -0.37 -9.60 -0.62z"/>
  <path d="M795.20 436.06 c0 -12.43 2.09 -22.40 2.22 -11.32 l0.12 5.54 7.38 -0.25 c5.91 -0.25 7.88 -0.86 9.60 -2.95 1.97 -2.46 2.09 -2.22 2.46 7.14 l0.37 9.72 -3.94 0.86 c-2.09 0.37 -6.03 0.74 -8.62 0.74 -2.71 0 -4.80 0.62 -4.80 1.23 0 0.74 -1.11 1.23 -2.46 1.23 -2.34 0 -2.46 -0.74 -2.34 -11.94z"/>
  <path d="M664 437.05 c0.98 -12.55 1.48 -14.52 3.82 -15.38 1.23 -0.49 1.72 -0.12 1.35 0.74 -0.74 2.22 4.92 7.14 8.25 7.14 1.72 0 3.32 -1.11 4.06 -2.71 1.11 -2.46 1.35 -2.09 2.71 2.83 0.86 3.08 1.35 8 1.11 10.95 l-0.37 5.54 -10.83 0.12 -10.83 0.25 0.74 -9.48z"/>
  <path d="M596.31 439.75 c3.94 -15.88 26.95 -18.58 34.46 -4.06 1.60 3.20 1.60 3.69 -0.12 5.42 -2.71 2.83 -7.51 2.46 -8.49 -0.49 -1.85 -5.91 -13.05 -6.28 -15.63 -0.49 -1.11 2.34 -2.34 2.95 -6.28 2.95 -4.68 0 -4.80 -0.12 -3.94 -3.32z"/>
  <path d="M515.32 437.29 c-0.49 -2.83 -0.37 -2.83 13.78 -2.83 l14.28 0 -3.08 2.46 c-2.34 1.72 -5.54 2.34 -13.78 2.71 -10.22 0.37 -10.71 0.25 -11.20 -2.34z"/>
  <path d="M372.68 418.83 c-4.92 -0.74 -4.43 -3.57 2.58 -13.54 5.54 -7.88 25.11 -27.45 27.45 -27.45 1.97 0 0.86 1.97 -4.18 7.26 -2.95 2.95 -5.29 5.78 -5.29 6.15 -0.12 0.37 -0.74 1.97 -1.60 3.45 -1.72 3.20 0.12 5.05 2.83 2.83 2.83 -2.34 2.09 0.62 -0.74 3.20 -1.48 1.23 -2.95 3.20 -3.45 4.18 -0.37 0.98 -2.71 4.80 -5.05 8.25 -4.43 6.65 -4.92 6.77 -12.55 5.66z"/>
  <path d="M573.54 410.95 c0 -0.74 2.83 -1.11 7.51 -0.86 6.89 0.37 7.75 0.12 10.34 -3.08 1.60 -1.85 3.45 -4.31 4.18 -5.42 1.72 -3.20 3.08 -0.98 1.35 2.34 -3.69 7.02 -6.03 8.37 -15.02 8.37 -5.05 0 -8.37 -0.49 -8.37 -1.35z"/>
 </g>
 <g fill="#0663c3">
  <path d="M712.62 561.97 c0 -1.72 -3.20 -1.97 -25.23 -1.97 l-25.23 0 0 -8.12 c0 -6.40 0.37 -7.88 1.60 -6.89 0.98 0.86 4.06 0.74 10.09 -0.62 4.80 -1.11 15.38 -2.22 23.75 -2.46 l15.02 -0.49 0 -5.54 c0 -2.95 0.62 -5.42 1.23 -5.42 0.74 0 1.23 1.23 1.23 2.58 0 2.58 0.37 2.58 7.14 1.72 3.82 -0.49 7.75 -0.86 8.62 -0.98 0.74 0 1.48 -1.48 1.60 -3.20 l0.12 -3.20 0.98 3.08 c0.49 1.72 0.98 4.92 1.11 7.14 l0.12 3.94 7.38 0 7.51 0 -0.74 7.75 c-1.11 10.71 -1.11 10.71 -7.14 10.71 -2.95 0 -5.78 0.49 -6.40 1.11 -0.74 0.62 -6.03 1.48 -11.94 1.85 -9.35 0.74 -10.83 0.62 -10.83 -0.98z"/>
  <path d="M497.23 492.92 c-2.34 -0.86 -5.91 -1.97 -7.88 -2.46 l-3.57 -0.74 0.86 -13.17 c1.35 -22.15 2.22 -29.78 3.32 -29.05 0.62 0.37 1.11 2.58 1.11 4.92 0 2.34 0.62 4.18 1.23 4.18 0.74 0 1.23 -0.62 1.23 -1.35 0 -0.62 0.62 -0.86 1.35 -0.49 0.74 0.49 2.58 -0.37 4.31 -1.97 l2.95 -2.71 0 2.58 c0 3.20 -4.55 2.95 46.15 2.71 47.51 -0.12 46.28 0.12 47.51 -11.32 0.37 -3.69 1.11 -7.38 1.60 -8.25 1.48 -2.22 3.08 -1.60 2.34 1.11 -0.49 2.09 0 2.46 2.95 2.46 3.32 0 3.57 0.25 3.08 4.18 -0.98 8.37 8.62 12.55 14.40 6.40 2.09 -2.22 2.71 -4.06 2.34 -6.77 -0.37 -2.58 0 -3.82 0.98 -3.82 0.86 0 2.71 -1.11 4.06 -2.58 l2.34 -2.58 1.35 2.46 c1.97 3.57 1.72 12.06 -0.49 16.25 -3.20 6.15 -9.23 9.85 -16.12 9.85 -3.32 0 -7.63 -0.86 -9.60 -1.85 -4.43 -2.34 -5.17 -2.34 -9.23 0.49 -3.08 2.22 -6.28 2.46 -42.09 2.83 -41.72 0.37 -42.95 0.62 -42.95 6.65 0 2.95 0 2.95 15.51 2.95 14.65 0 20.18 0.98 20.18 3.69 0 0.74 -5.91 1.35 -13.78 1.48 l-13.91 0.25 12.06 0.37 11.94 0.49 0 4.43 c0 4.18 -0.12 4.31 -2.22 2.46 -1.85 -1.72 -4.92 -2.09 -16.12 -2.09 l-13.91 0 0.62 3.32 c1.11 6.15 -4.80 8.25 -13.91 4.68z"/>
  <path d="M452.31 485.54 c-9.48 -1.48 -19.82 -3.45 -23.02 -4.31 l-5.91 -1.48 0 -5.78 c0 -7.38 3.57 -28.68 5.05 -30.15 0.62 -0.74 1.11 0.49 1.11 3.20 l0 4.43 9.60 0.12 c5.17 0.12 10.58 0.12 11.94 0.12 11.82 0 15.38 -0.37 15.38 -1.35 0 -1.23 3.45 -0.98 5.91 0.49 0.86 0.62 1.48 0.37 1.48 -0.62 0 -1.23 0.25 -1.23 1.11 0.12 0.86 1.35 1.23 1.23 1.72 -0.62 0.86 -3.57 0.98 9.72 0 25.11 l-0.74 13.78 -3.20 -0.12 c-1.72 0 -10.95 -1.35 -20.43 -2.95z"/>
  <path d="M402.46 473.48 c-6.40 -2.22 -15.26 -6.03 -19.69 -8.37 l-8 -4.18 0.12 -6.15 c0.12 -3.45 1.11 -8.12 2.22 -10.46 l1.97 -4.31 -0.37 4.68 c-0.37 4.92 0 5.17 6.28 3.45 2.09 -0.62 3.94 -0.86 3.94 -0.37 0 0.49 2.09 0.98 4.68 1.11 7.63 0.62 11.32 1.11 12.18 1.97 1.23 1.35 6.28 0.98 7.14 -0.37 0.37 -0.62 1.85 -1.23 3.32 -1.23 2.22 0 2.46 0.49 1.72 4.06 -0.49 2.09 -1.23 7.88 -1.60 12.55 -0.37 4.80 -1.11 9.35 -1.48 10.09 -0.62 1.11 -3.82 0.49 -12.43 -2.46z"/>
  <path d="M891.08 471.26 c0 -4.68 -0.25 -5.05 -2.71 -4.18 -1.60 0.49 -4.92 1.11 -7.38 1.48 l-4.68 0.62 0 -8.37 c0 -4.68 -0.37 -10.71 -0.86 -13.29 -0.49 -3.45 -0.37 -4.55 0.62 -3.94 0.86 0.49 1.48 1.97 1.48 3.45 0 1.85 0.49 2.22 2.09 1.72 1.23 -0.49 4.92 -1.11 8.49 -1.48 6.28 -0.62 6.28 -0.62 7.14 3.32 0.37 2.09 0.74 8.74 0.74 14.77 0 10.09 -0.25 10.95 -2.46 10.95 -2.09 0 -2.46 -0.86 -2.46 -5.05z"/>
  <path d="M717.54 453.66 c0 -7.63 0.49 -11.69 1.23 -11.20 0.74 0.37 1.23 1.60 1.23 2.71 0 1.48 1.48 1.72 8.62 1.23 l8.62 -0.49 0 3.94 c0 6.52 1.48 11.69 3.20 11.69 0.98 0 1.72 0.62 1.72 1.23 0 0.74 -1.85 1.23 -3.94 1.23 -2.22 0 -7.75 0.37 -12.31 0.86 l-8.37 0.74 0 -11.94z"/>
  <path d="M795.82 461.29 c-0.98 -3.82 -0.74 -15.75 0.49 -19.45 0.49 -1.72 0.98 -2.46 1.11 -1.60 0.12 1.23 3.45 1.35 13.91 0.49 1.11 0 2.46 -1.35 2.95 -2.83 0.86 -2.71 0.86 -2.71 1.85 -0.37 0.49 1.35 0.98 6.40 0.98 11.32 0.12 7.88 0.49 9.11 3.20 11.20 4.06 3.20 3.94 3.94 -1.11 3.94 -2.95 0 -4.80 -0.86 -6.03 -2.46 -1.48 -2.09 -2.58 -2.34 -7.38 -1.72 -3.69 0.49 -5.78 1.48 -5.78 2.46 0 2.83 -3.32 1.97 -4.18 -0.98z"/>
  <path d="M663.38 453.05 c0 -6.52 0.49 -10.09 1.60 -11.08 0.98 -0.74 1.97 -1.11 2.22 -0.86 0.98 0.98 13.05 1.85 13.91 1.11 0.49 -0.49 1.60 -0.98 2.58 -1.11 1.48 -0.25 1.85 1.48 1.85 8.49 0 11.94 -0.49 12.43 -9.72 11.32 -5.17 -0.62 -7.51 -0.49 -7.51 0.49 0 0.74 -1.11 1.35 -2.46 1.35 -2.22 0 -2.46 -0.86 -2.46 -9.72z"/>
  <path d="M931.69 454.15 c0 -7.88 0.25 -8.62 2.83 -9.23 1.48 -0.37 4.55 -0.49 6.65 -0.25 2.22 0.37 5.42 -0.25 7.14 -1.11 l3.08 -1.60 0 8.49 c0 12.31 0 12.31 -10.58 12.31 l-9.11 0 0 -8.62z"/>
  <path d="M363.82 438.65 c-3.94 -3.94 -3.57 -7.26 1.60 -17.35 5.91 -11.08 13.05 -21.29 15.02 -21.29 0.86 0 0.49 1.35 -0.74 3.32 -5.78 8.86 -7.26 11.94 -5.42 11.20 1.11 -0.37 2.71 -0.25 3.69 0.25 0.98 0.62 2.34 0.49 3.20 -0.25 3.20 -2.58 2.83 0.12 -0.62 5.66 -1.97 3.08 -4.92 8.98 -6.40 13.05 -2.34 6.15 -3.20 7.38 -5.66 7.38 -1.48 0 -3.69 -0.86 -4.68 -1.97z"/>
 </g>
 <g fill="#0654b3">
  <path d="M713.11 574.28 c-0.37 -0.86 -0.49 -4.68 -0.25 -8.25 0.37 -6.03 0.62 -6.65 3.45 -7.02 11.82 -1.23 18.71 -1.85 24.25 -1.85 5.42 0 6.52 -0.37 7.02 -2.58 0.25 -1.48 0.37 -0.98 0.37 1.11 -0.25 3.45 -0.62 3.69 -6.40 4.31 l-6.15 0.62 -0.37 7.75 -0.37 7.63 -10.46 0 c-7.63 0 -10.58 -0.49 -11.08 -1.72z"/>
  <path d="M488.74 548.18 c-2.09 -14.77 -3.20 -63.02 -1.60 -66.95 l1.35 -3.08 0 3.32 c0.12 3.08 3.82 6.77 5.42 5.17 0.37 -0.37 2.34 0.25 4.43 1.35 2.22 1.11 4.43 1.60 5.05 1.23 0.74 -0.37 1.23 -0.12 1.23 0.74 0 0.86 0.98 0.25 2.34 -1.11 2.95 -3.57 3.45 -3.45 4.43 1.23 0.98 4.55 7.63 15.75 9.35 15.75 0.62 0 1.11 2.09 1.11 4.80 0 5.17 1.35 6.89 6.15 8.12 2.22 0.49 4.68 -0.25 8.98 -3.20 5.05 -3.32 6.40 -3.69 9.85 -2.71 3.45 0.86 3.94 1.72 4.31 5.54 0.37 4.18 -0.37 5.29 -10.46 15.38 -5.91 6.03 -13.54 12.80 -16.98 14.89 -6.65 4.31 -18.95 8.62 -27.82 9.72 l-5.66 0.62 -1.48 -10.83z"/>
  <path d="M470.65 547.32 c-0.74 -0.86 -1.60 -2.34 -1.97 -3.32 -0.37 -1.35 -3.20 -1.85 -11.82 -1.97 -9.60 -0.12 -11.69 -0.49 -13.54 -2.58 -1.11 -1.23 -4.18 -3.32 -6.77 -4.55 -2.83 -1.23 -5.17 -3.45 -5.91 -5.42 -2.46 -6.40 -6.03 -23.02 -6.77 -32.12 l-0.86 -9.11 5.42 0.74 c2.95 0.37 11.20 1.85 18.34 3.08 7.14 1.35 16.62 2.83 21.29 3.32 l8.25 0.86 0 11.20 c0 10.46 1.48 28.06 3.20 37.54 0.74 3.82 0.62 3.94 -3.32 3.94 -2.34 -0.12 -4.80 -0.74 -5.54 -1.60z"/>
  <path d="M408.62 532.55 c-26.09 -13.05 -30.89 -18.34 -34.95 -38.03 -1.85 -8.98 -2.71 -26.83 -1.35 -26.83 0.37 0 4.68 1.97 9.48 4.43 4.92 2.46 14.15 6.40 20.55 8.74 6.52 2.34 11.94 4.43 12.18 4.55 0.12 0.25 0.86 5.29 1.60 11.32 0.62 6.03 2.58 16.12 4.18 22.40 3.69 14.03 3.94 18.71 0.98 18.71 -1.23 -0.12 -6.89 -2.46 -12.68 -5.29z"/>
  <path d="M587.08 511.14 c-4.31 -1.60 -8.98 -5.91 -10.58 -9.72 l-1.72 -4.18 -12.18 0 c-11.32 0 -12.55 -0.25 -16 -3.20 -2.09 -1.72 -4.80 -4.80 -5.91 -6.77 l-2.09 -3.57 -13.29 0 c-10.95 0 -13.29 -0.37 -13.29 -1.85 0 -0.98 0.74 -1.85 1.72 -1.85 0.98 0 1.60 -0.98 1.48 -2.09 -0.12 -1.97 1.48 -2.22 14.77 -2.58 l14.77 -0.37 5.29 6.28 5.17 6.15 9.48 0 9.60 0 4.55 -5.54 c5.54 -6.65 11.82 -8.86 19.32 -6.77 13.78 3.69 19.08 19.08 10.22 29.66 -5.17 6.03 -14.65 8.86 -21.29 6.40z m11.94 -11.69 c4.06 -3.69 3.82 -9.85 -0.37 -13.17 -1.85 -1.48 -4.18 -2.58 -5.42 -2.58 -4.18 0 -8.62 4.80 -8.62 9.35 0 8.12 8.49 11.94 14.40 6.40z"/>
  <path d="M626.46 506.22 c0 -5.17 5.29 -21.29 7.14 -21.29 1.97 0 1.85 0.86 -0.49 13.91 -1.72 8.98 -2.34 10.71 -4.31 10.71 -1.72 0 -2.34 -0.86 -2.34 -3.32z"/>
  <path d="M465.23 487.75 c-2.34 -0.37 -4.80 -1.11 -5.42 -1.72 -0.74 -0.62 -2.34 -1.11 -3.69 -1.11 -1.97 0 -2.22 -0.25 -0.86 -1.11 1.11 -0.74 2.95 -0.74 4.68 0 4.68 1.72 11.69 1.35 14.15 -0.98 2.09 -1.85 2.22 -1.72 2.22 1.85 0 4.31 -0.25 4.31 -11.08 3.08z"/>
  <path d="M664.25 475.45 c-1.35 -1.35 -0.98 -14.77 0.49 -18.09 1.23 -2.58 1.85 -2.83 3.69 -1.85 1.35 0.62 2.34 0.98 2.34 0.74 0 -0.37 2.22 -0.12 4.92 0.37 2.71 0.49 4.92 0.49 4.92 0 0 -0.49 1.23 -1.23 2.58 -1.60 2.58 -0.74 2.58 -0.49 1.85 6.77 -0.37 4.18 -0.74 9.11 -0.74 10.95 l0 3.57 -9.60 0 c-5.29 0 -10.09 -0.37 -10.46 -0.86z"/>
  <path d="M718.03 474.71 c-0.37 -0.98 -0.49 -5.78 -0.25 -10.83 0.37 -8.37 0.49 -8.86 1.85 -5.66 1.35 2.95 5.29 4.80 5.29 2.34 0 -0.49 1.48 -0.86 3.45 -0.74 1.85 0.12 4.55 -0.49 5.91 -1.48 2.34 -1.48 2.71 -1.35 3.32 0.74 0.62 2.34 1.85 2.46 24.74 2.46 l24 0 0.74 4.18 c0.49 2.22 0.62 5.42 0.37 7.02 l-0.37 2.95 -34.22 0.37 c-27.82 0.25 -34.22 0 -34.83 -1.35z"/>
  <path d="M810.46 474.95 c-4.80 -0.74 -7.02 -1.97 -10.09 -5.29 -3.69 -4.06 -4.06 -5.05 -3.94 -12.06 0 -5.91 0.25 -7.14 1.11 -4.92 1.23 2.83 1.97 3.08 11.20 2.71 4.68 -0.12 6.40 0.37 8.86 2.95 3.20 3.20 3.32 3.20 24.74 3.20 11.82 0 21.78 0.37 22.03 0.98 0.37 0.49 0.25 3.82 0 7.38 l-0.74 6.40 -23.51 -0.12 c-12.92 -0.12 -26.22 -0.62 -29.66 -1.23z"/>
  <path d="M876.31 469.29 c0 -4.80 0.37 -6.52 1.11 -5.42 0.98 1.48 1.72 1.60 4.43 0.37 1.72 -0.86 4.80 -1.48 6.65 -1.48 2.34 0 3.82 -0.86 4.80 -2.71 1.11 -2.34 1.35 -1.60 1.35 4.80 0.12 4.18 0.49 8.37 0.86 9.48 0.62 1.72 -0.62 1.97 -9.23 1.97 l-9.97 0 0 -7.02z"/>
  <path d="M931.45 475.45 c-0.25 -0.49 0 -5.17 0.37 -10.22 0.37 -5.05 0.74 -8.62 0.86 -7.75 0.25 1.48 13.78 1.72 13.78 0.25 0 -0.49 1.11 -1.11 2.46 -1.48 2.46 -0.62 2.58 -0.25 2.22 9.35 l-0.37 10.09 -9.48 0.37 c-5.17 0.25 -9.60 -0.12 -9.85 -0.62z"/>
  <path d="M355.69 466.46 c0 -0.62 -0.86 -1.23 -1.85 -1.23 -2.58 0 -2.34 -4.31 0.62 -16 2.83 -11.32 8.37 -24.62 10.09 -24.62 0.74 0 0.98 1.11 0.62 2.58 -0.37 1.48 -0.12 3.94 0.62 5.42 1.48 3.20 4.68 5.05 4.68 2.83 0 -0.98 0.37 -1.11 1.23 -0.25 0.86 0.86 0.74 2.95 -0.49 6.40 -0.98 2.83 -2.46 8.62 -3.20 12.80 -2.58 14.28 -1.97 13.29 -7.38 13.29 -2.71 0 -4.92 -0.49 -4.92 -1.23z"/>
 </g>
 <g fill="#09489b">
  <path d="M589.54 596.55 c0 -0.37 3.45 -2.95 7.51 -5.78 l7.63 -5.17 31.51 -1.11 c17.35 -0.49 67.32 -0.98 111.26 -1.11 l79.63 0 0 2.95 c0 2.83 -0.25 2.95 -12.55 3.69 -7.02 0.37 -44.80 1.23 -84.06 1.97 -67.82 1.23 -112.25 2.71 -131.94 4.43 -4.92 0.37 -8.98 0.37 -8.98 0.12z"/>
  <path d="M713.48 575.26 c-0.49 -0.49 -0.86 -2.22 -0.86 -3.94 0 -2.83 0.12 -2.95 2.83 -1.11 1.48 0.98 6.28 2.22 10.46 2.71 4.18 0.49 7.88 1.23 8.25 1.85 0.74 1.11 -19.45 1.60 -20.68 0.49z"/>
  <path d="M428.92 559.14 c-1.35 -0.37 -5.42 -1.72 -8.86 -3.08 -6.03 -2.22 -6.52 -2.71 -6.52 -6.28 0 -6.77 1.11 -7.26 9.97 -4.31 7.26 2.34 8.25 3.08 11.32 8.49 l3.32 6.03 -3.45 -0.12 c-1.85 -0.12 -4.43 -0.49 -5.78 -0.74z"/>
  <path d="M600.98 553.11 c-2.83 -1.23 -1.72 -3.94 5.05 -13.42 7.02 -9.72 15.51 -25.60 20.55 -38.15 l2.95 -7.38 0.86 7.38 c0.62 6.40 0.25 9.11 -3.45 20.31 -2.34 7.14 -6.40 17.11 -8.98 22.15 l-4.80 9.23 -5.29 0.25 c-2.95 0.12 -6.15 0 -6.89 -0.37z"/>
  <path d="M459.69 547.69 c-16.12 -2.83 -22.89 -4.55 -24 -5.78 -2.09 -2.22 -7.26 -18.71 -6.15 -19.45 0.74 -0.37 1.85 0.62 2.58 2.22 0.74 1.72 3.94 4.43 7.14 5.91 3.08 1.60 6.52 3.82 7.51 4.80 0.98 1.11 2.83 1.72 3.94 1.48 1.11 -0.25 3.08 0.12 4.43 0.86 1.72 0.86 3.08 0.74 4.92 -0.62 1.60 -1.11 2.71 -1.35 2.71 -0.62 0 0.74 0.62 1.35 1.35 1.35 0.62 0 0.86 -0.49 0.49 -1.23 -0.37 -0.74 0.49 -1.23 2.22 -1.23 1.97 0 3.45 1.11 4.68 3.45 0.98 1.85 2.46 4.18 3.45 5.17 1.60 1.60 1.72 1.60 1.11 -0.62 -0.37 -1.35 -0.86 -2.95 -0.98 -3.69 -0.12 -0.62 -0.25 -5.42 -0.12 -10.46 0.25 -11.08 1.85 -9.35 3.08 3.08 0.37 4.80 1.11 10.71 1.48 13.29 0.86 4.55 0.74 4.55 -3.32 4.43 -2.34 0 -9.72 -1.11 -16.49 -2.34z"/>
  <path d="M419.08 537.11 c-4.06 -1.72 -8.37 -3.45 -9.48 -3.82 -1.23 -0.37 -2.22 -1.23 -2.22 -1.85 0 -0.62 -0.62 -0.74 -1.48 -0.25 -0.86 0.49 -0.98 0.37 -0.49 -0.49 0.62 -1.11 2.09 -0.86 5.42 0.49 8.49 3.69 8.86 3.69 8.86 -0.86 0 -2.34 -0.49 -6.03 -1.11 -8.25 -0.86 -2.71 -0.86 -3.94 0 -3.69 0.98 0.37 8.74 20.80 8 21.54 -0.12 0.12 -3.45 -1.23 -7.51 -2.83z"/>
  <path d="M1035.08 518.15 c0 -16.37 0.12 -17.23 2.46 -17.23 2.34 0 2.46 0.86 2.46 17.23 0 16.37 -0.12 17.23 -2.46 17.23 -2.34 0 -2.46 -0.86 -2.46 -17.23z"/>
  <path d="M543.26 523.82 c4.18 -5.17 5.91 -9.23 3.20 -7.51 -0.62 0.37 -1.23 0.12 -1.23 -0.49 0 -1.48 0 -1.48 5.91 -1.97 4.92 -0.37 5.91 0.98 3.45 4.55 -1.11 1.48 -1.97 3.57 -1.97 4.43 0 2.83 -5.29 6.28 -9.72 6.40 l-4.06 0 4.43 -5.42z"/>
  <path d="M585.23 510.03 c-5.42 -2.83 -6.03 -3.82 -3.20 -5.29 2.46 -1.35 2.46 -1.60 0.49 -5.54 -1.23 -2.58 -1.60 -5.05 -0.98 -6.52 0.86 -1.85 1.11 -1.72 1.72 1.48 0.86 4.18 7.75 9.48 10.95 8.37 1.85 -0.49 1.85 -0.37 0.25 0.74 -0.98 0.74 -2.83 1.35 -3.94 1.35 -1.23 0 -2.22 0.74 -2.22 1.72 0 1.97 2.58 3.20 6.89 3.20 1.60 0 2.95 0.62 2.95 1.23 0 1.97 -8.86 1.48 -12.92 -0.74z"/>
  <path d="M600.12 509.78 c-0.37 -0.62 1.23 -2.83 3.45 -5.05 3.20 -3.08 4.31 -3.57 4.80 -2.22 0.98 2.58 -6.89 9.48 -8.25 7.26z"/>
  <path d="M352.12 491.57 c-1.35 -1.60 -1.60 -5.42 -1.11 -17.97 0.37 -8.74 0.98 -16.25 1.35 -16.62 0.37 -0.37 1.60 0.12 2.58 1.23 0.98 0.98 1.48 2.09 1.11 2.58 -0.49 0.37 0.12 0.74 1.23 0.74 1.11 0 2.09 0.49 2.09 0.98 0 0.62 0.86 1.11 1.85 1.11 0.98 0 1.85 -0.37 1.85 -0.86 0 -0.37 0.74 -1.72 1.60 -2.83 1.23 -1.85 1.48 0.86 1.35 14.77 -0.12 15.26 -0.37 16.98 -2.46 17.72 -3.94 1.60 -9.60 1.11 -11.45 -0.86z"/>
  <path d="M768.98 475.45 c-3.82 -0.98 -2.34 -2.46 2.46 -2.46 9.23 0 11.32 -0.37 13.78 -3.08 l2.58 -2.83 -0.37 4.31 -0.37 4.31 -8 0.25 c-4.43 0 -8.98 -0.12 -10.09 -0.49z"/>
 </g>
 <g fill="#073786">
  <path d="M480.74 591.88 c-18.58 -2.71 -37.66 -10.22 -53.29 -21.05 -10.83 -7.51 -30.03 -25.97 -35.82 -34.46 -2.22 -3.20 -3.94 -6.03 -3.94 -6.40 0 -1.72 3.45 -0.37 12.18 4.68 5.17 3.08 11.82 6.40 14.89 7.63 7.02 2.71 6.77 2.46 4.31 4.92 -2.58 2.58 -1.60 3.32 8.98 6.65 5.54 1.72 8.74 3.57 11.08 6.40 8.25 10.09 14.89 16.37 20.55 19.57 3.45 1.97 6.52 3.57 7.02 3.57 0.37 0 -2.46 -3.08 -6.52 -6.89 -7.38 -7.14 -19.32 -23.26 -18.09 -24.49 0.37 -0.37 6.15 0.37 12.80 1.72 6.77 1.35 15.51 2.83 19.69 3.32 l7.38 0.74 3.32 10.71 c1.72 5.78 4.43 12.55 6.03 14.89 2.58 3.94 2.83 4.06 3.20 1.60 0.25 -1.60 -0.74 -8.49 -2.09 -15.26 -1.48 -6.89 -2.58 -13.17 -2.58 -13.91 0 -0.74 1.60 -1.35 3.45 -1.48 6.15 -0.25 20.43 -5.17 26.58 -9.23 3.32 -2.22 10.09 -7.75 14.89 -12.31 10.22 -9.48 14.77 -12.68 16.37 -11.69 2.58 1.60 2.71 6.89 0.25 11.45 -1.35 2.58 -2.46 6.03 -2.46 7.75 0 1.72 -1.48 5.54 -3.08 8.62 -1.72 3.08 -3.69 6.89 -4.55 8.62 -0.74 1.72 -3.57 5.78 -6.28 8.98 -8.49 10.34 -3.69 12.31 12.92 5.05 14.03 -6.15 28.43 -15.88 40.62 -27.57 5.66 -5.42 10.95 -9.85 11.82 -9.85 4.68 0 -20.55 27.45 -34.22 37.17 -18.46 13.17 -40.98 20.68 -61.78 20.68 -6.77 0 -8.25 -0.37 -8.74 -2.09 -0.49 -1.72 -0.62 -1.48 -0.74 0.62 -0.12 3.08 -1.60 3.20 -14.15 1.35z"/>
  <path d="M790.77 589.66 c-11.32 -0.86 -10.34 -0.86 10.46 -1.23 14.40 -0.12 21.78 -0.62 20.18 -1.35 -7.75 -3.08 -3.69 -3.69 25.85 -3.69 l30.28 0 0 3.08 0 3.08 -28.06 0 c-15.51 0 -32.25 0.25 -37.29 0.49 -5.05 0.25 -14.65 0 -21.42 -0.37z"/>
  <path d="M579.94 578.22 c-3.69 -3.69 -1.60 -7.63 10.83 -20.31 11.08 -11.45 15.14 -15.02 12.80 -11.32 -0.86 1.48 1.48 3.57 4.06 3.57 0.74 0 3.20 -1.48 5.29 -3.20 2.09 -1.85 4.06 -3.08 4.31 -2.71 0.98 0.98 -8.37 15.75 -15.02 23.88 -3.57 4.31 -8.12 8.62 -10.22 9.72 -4.31 2.22 -9.97 2.46 -12.06 0.37z"/>
  <path d="M367.26 543.75 c-6.52 -11.20 -13.29 -29.54 -15.14 -41.60 -1.60 -9.72 -1.72 -35.32 -0.25 -36.18 0.49 -0.37 1.35 3.94 1.60 9.72 0.74 11.45 2.34 14.40 6.89 12.80 2.22 -0.86 2.71 -2.09 2.95 -6.89 l0.12 -5.91 0.49 5.54 c0.37 2.95 0.86 5.78 1.35 6.15 0.49 0.37 1.85 5.05 2.83 10.46 2.58 12.92 8.62 27.08 16.12 38.40 3.45 5.05 5.78 9.85 5.42 10.83 -1.11 2.83 -8.37 6.77 -12.68 6.77 -3.45 0 -4.31 -0.86 -9.72 -10.09z"/>
  <path d="M758.15 505.97 l0 -5.05 5.05 0 4.92 0 -0.37 4.68 c-0.37 4.31 -0.62 4.55 -4.92 4.92 l-4.68 0.37 0 -4.92z"/>
 </g>
 <g fill="#082f78">
  <path d="M476.55 614.15 c-42.09 -5.91 -83.69 -31.02 -104.98 -63.38 -8 -12.06 -16.12 -30.15 -13.66 -30.15 0.62 0 2.95 4.06 5.05 8.98 3.20 7.02 7.75 14.89 11.94 20.43 0.86 1.11 8.12 -2.95 10.34 -5.66 l2.46 -3.08 3.20 4.06 c7.02 8.86 22.52 22.65 33.85 30.15 13.42 8.98 27.32 15.38 41.35 19.20 13.66 3.57 40.37 4.43 54.89 1.72 21.42 -4.06 41.60 -13.66 58.46 -27.82 8.37 -7.02 12.06 -7.75 6.03 -1.23 -2.95 3.20 -3.20 4.55 -1.72 7.02 0.86 1.35 5.66 0.37 10.95 -2.22 8 -4.06 2.22 3.32 -10.71 13.54 -16.37 13.05 -34.46 21.78 -53.54 26.09 -12.06 2.83 -41.72 4.06 -53.91 2.34z"/>
  <path d="M481.85 592.12 c-17.72 -2.95 -20.18 -3.82 -20.55 -7.26 -0.25 -2.34 -0.98 -3.32 -2.58 -3.08 -1.23 0 -1.97 -0.12 -1.60 -0.49 0.62 -0.74 -6.77 -7.26 -7.75 -6.89 -1.35 0.37 -6.28 -5.05 -6.28 -6.89 0 -1.11 2.22 0.25 5.91 3.82 3.20 3.08 8.86 7.51 12.68 9.97 3.82 2.34 7.38 4.92 7.75 5.66 0.49 0.74 2.83 1.35 5.05 1.35 2.34 0 6.77 0.62 9.85 1.48 5.91 1.60 8 0.86 5.54 -2.09 -0.86 -0.98 -1.11 -2.71 -0.74 -3.82 0.62 -1.72 1.11 -1.60 3.32 0.86 l2.46 2.95 -0.62 -7.02 c-0.74 -7.26 1.11 -11.20 2.34 -5.05 0.37 1.85 1.35 5.54 2.09 8.12 1.35 4.31 1.60 4.55 2.95 2.71 1.48 -1.85 1.85 -1.97 3.45 -0.37 1.85 1.85 11.69 1.85 13.05 -0.12 0.37 -0.49 3.69 -0.86 7.38 -0.98 3.69 0 10.34 -1.23 14.65 -2.71 9.35 -3.08 9.48 -3.08 7.51 -0.86 -1.60 2.09 -16.74 7.26 -27.08 9.35 -8.98 1.72 -31.14 2.58 -38.77 1.35z"/>
  <path d="M860.31 588.43 l-8 -0.62 10.46 -0.74 c7.38 -0.37 10.34 -1.11 10.22 -2.09 -0.25 -1.23 20.06 -1.60 98.46 -1.60 96.25 0 130.83 0.74 127.38 2.46 -0.86 0.49 -47.51 1.35 -103.75 1.72 -56.12 0.37 -107.69 0.98 -114.46 1.23 -6.77 0.25 -15.88 0.12 -20.31 -0.37z"/>
  <path d="M914.95 566.15 c-7.26 -1.11 -9.85 -2.34 -14.03 -6.77 -3.08 -3.20 -3.08 -3.32 -3.45 -30.89 l-0.37 -27.57 9.23 0 9.23 0 0.37 23.26 c0.37 20.68 0.62 23.51 2.71 25.85 5.05 5.54 20.68 4.31 23.02 -1.97 0.62 -1.60 1.11 -12.92 1.11 -25.11 l0 -22.03 9.85 0 9.85 0 0 24.86 c0 22.28 -0.25 25.35 -2.46 29.91 -1.35 2.71 -3.94 5.91 -5.78 7.02 -7.02 4.06 -24.37 5.66 -39.26 3.45z"/>
  <path d="M778.83 565.29 c-1.97 -0.49 -2.22 -2.83 -2.22 -25.72 l0 -25.11 -9.35 0 -9.23 0 0.37 -3.94 c0.25 -2.83 0.98 -4.06 2.46 -4.06 1.23 0 2.09 -0.62 1.85 -1.23 -0.12 -0.74 -0.86 -1.11 -1.72 -1.11 -0.74 0.12 -1.72 -0.62 -2.09 -1.48 -0.49 -1.48 4.31 -1.72 28.80 -1.72 l29.42 0 0.74 4.18 c1.60 8.25 1.11 8.74 -10.22 9.11 l-10.09 0.37 0 25.11 0 25.23 -5.78 0 c-3.32 0 -7.02 0.25 -8.37 0.49 -1.35 0.25 -3.45 0.25 -4.55 -0.12z"/>
  <path d="M831.14 565.29 l-5.17 -0.49 -0.37 -23.63 c-0.25 -13.05 -0.25 -27.32 0 -31.88 l0.37 -8.37 23.63 0 c20.31 0 24.37 0.37 28.55 2.34 8.49 3.94 9.85 6.28 9.85 18.22 0 11.32 -0.25 11.69 -10.58 18.95 l-2.83 1.97 8.86 10.95 c4.92 6.03 8.86 11.32 8.86 11.82 0 0.62 -4.68 0.98 -10.46 0.98 -12.06 0 -11.20 0.62 -23.63 -15.63 -5.78 -7.51 -7.51 -8.98 -10.09 -8.74 -2.95 0.37 -3.08 0.49 -3.08 12.06 l-0.12 11.69 -4.31 0.12 c-2.34 0.12 -6.65 -0.12 -9.48 -0.37z m34.58 -36.80 c2.46 -0.98 3.69 -5.66 2.71 -9.72 -1.11 -4.18 -5.54 -5.66 -15.38 -5.29 l-8.12 0.37 -0.37 5.78 c-0.25 3.20 0.25 7.02 1.11 8.49 1.23 2.46 1.97 2.58 9.72 1.85 4.68 -0.37 9.23 -1.11 10.34 -1.48z"/>
  <path d="M1088.98 565.17 l-8.37 -0.37 0 -6.40 c0 -3.57 -0.37 -9.35 -0.74 -12.80 l-0.86 -6.52 -12.06 0 -12.18 0 0 12.92 0 12.92 -9.97 0 -9.97 0 0.49 -32 0.37 -32 9.60 0 9.48 0 0 12.92 0 13.05 12.68 -0.37 12.55 -0.37 0.12 -12.31 0.12 -12.31 9.35 -0.37 9.48 -0.37 0 32 c0 17.60 -0.37 32.12 -0.86 32.37 -0.62 0.25 -4.68 0.25 -9.23 0z"/>
  <path d="M988.31 543.51 c0 -11.69 -0.37 -23.14 -0.74 -25.23 l-0.74 -3.82 -9.11 0 -9.11 0 0 -6.77 0 -6.77 29.54 0 29.54 0 0 6.77 0 6.65 -10.09 0.37 -10.22 0.37 -0.37 24.98 -0.25 24.86 -9.23 0 -9.23 0 0 -21.42z"/>
 </g>
</svg>